<svg xmlns="http://www.w3.org/2000/svg" viewBox="0 0 134.31 136.33"><defs><style>.cls-1{fill:#fff;stroke:#231f20;stroke-miterlimit:10;}</style></defs><title>crow-shield</title><g id="Layer_2" data-name="Layer 2"><g id="Layer_3" data-name="Layer 3"><path class="cls-1" d="M.5,68Q.5,38.69,19.9,19.6T65.9.5q29.42,0,48.67,19.2t19.25,48.52q0,29.12-19,48.37t-48,19.25q-28.92,0-47.61-19.15T.5,68Z"/><path d="M93.37,43.23a45.49,45.49,0,0,0-7.76.34A33.26,33.26,0,0,0,60.25,30C41.69,29.23,26,44,25.19,63.07c0,0,0,.07,0,.11-3.59,4.21-7.47,9.19-11.43,14.7Q21.44,80,28.44,82.4C28.72,82,53.82,93,62.09,98.8a55.36,55.36,0,0,1,13.77,13.26A41.81,41.81,0,0,1,75,101.7a76,76,0,0,1,1.19-8.28,41.84,41.84,0,0,1,42.35-31.74,42.21,42.21,0,0,1,6.85.86C121.12,51.91,108.53,43.87,93.37,43.23Z"/></g></g></svg>